HIERARCHY
ROOT newVegas:Hips
{
	OFFSET 0.000000 96.479958 0.000000
	CHANNELS 6 Xposition Yposition Zposition Xrotation Yrotation Zrotation
	JOINT newVegas:Pelvis
	{
		OFFSET 0.000000 0.000000 0.000000
		CHANNELS 3 Xrotation Yrotation Zrotation
		JOINT newVegas:LeftUpLeg
		{
			OFFSET 18.735201 -5.666702 -4.541200
			CHANNELS 3 Xrotation Yrotation Zrotation
			JOINT newVegas:LeftLeg
			{
				OFFSET -0.021200 -31.938179 0.493100
				CHANNELS 3 Xrotation Yrotation Zrotation
				JOINT newVegas:LeftFoot
				{
					OFFSET 0.021200 -31.938179 -4.336299
					CHANNELS 3 Xrotation Yrotation Zrotation
					JOINT newVegas:LeftToeBase
					{
						OFFSET 0.943001 -26.722000 15.023500
						CHANNELS 3 Xrotation Yrotation Zrotation
						End Site
						{
							OFFSET 0.000000 30.670183 0.000000
						}
					}
				}
				JOINT newVegas:Left_PantLeg
				{
					OFFSET 0.663870 -9.044666 -1.108900
					CHANNELS 3 Xrotation Yrotation Zrotation
					End Site
					{
						OFFSET 1.415995 20.635357 0.000000
					}
				}
			}
		}
		JOINT newVegas:RightUpLeg
		{
			OFFSET -18.735201 -5.666702 -4.541200
			CHANNELS 3 Xrotation Yrotation Zrotation
			JOINT newVegas:RightLeg
			{
				OFFSET 0.018946 -31.938133 0.493100
				CHANNELS 3 Xrotation Yrotation Zrotation
				JOINT newVegas:RightFoot
				{
					OFFSET -0.018946 -31.938126 -4.336299
					CHANNELS 3 Xrotation Yrotation Zrotation
					JOINT newVegas:RightToeBase
					{
						OFFSET -0.943001 -26.722004 15.023500
						CHANNELS 3 Xrotation Yrotation Zrotation
						End Site
						{
							OFFSET 0.000000 30.670187 0.000000
						}
					}
				}
				JOINT newVegas:Right_PantLeg
				{
					OFFSET -0.661674 -9.044716 -1.108900
					CHANNELS 3 Xrotation Yrotation Zrotation
					End Site
					{
						OFFSET -1.415958 20.635269 0.000000
					}
				}
			}
		}
	}
	JOINT newVegas:Spine
	{
		OFFSET 0.000000 10.199997 -0.299500
		CHANNELS 3 Xrotation Yrotation Zrotation
		JOINT newVegas:Spine1
		{
			OFFSET 0.000000 11.900002 -1.516600
			CHANNELS 3 Xrotation Yrotation Zrotation
			JOINT newVegas:Spine2
			{
				OFFSET 0.000000 13.600006 -2.842500
				CHANNELS 3 Xrotation Yrotation Zrotation
				JOINT newVegas:Neck
				{
					OFFSET 0.000000 9.624100 -2.890100
					CHANNELS 3 Xrotation Yrotation Zrotation
					JOINT newVegas:Head
					{
						OFFSET 0.000000 14.068802 -1.351900
						CHANNELS 3 Xrotation Yrotation Zrotation
						JOINT newVegas:Hair_Back
						{
							OFFSET 0.000000 3.231903 -17.524799
							CHANNELS 3 Xrotation Yrotation Zrotation
							End Site
							{
								OFFSET 0.000000 19.849884 0.000000
							}
						}
						JOINT newVegas:Hair_Front
						{
							OFFSET 0.000000 31.260406 4.573800
							CHANNELS 3 Xrotation Yrotation Zrotation
							JOINT newVegas:Hair_Front1
							{
								OFFSET 0.000000 2.284103 11.993300
								CHANNELS 3 Xrotation Yrotation Zrotation
								JOINT newVegas:Hair_Front2
								{
									OFFSET 0.000000 2.284103 11.993300
									CHANNELS 3 Xrotation Yrotation Zrotation
									End Site
									{
										OFFSET 0.000000 12.208862 0.000000
									}
								}
							}
						}
						JOINT newVegas:Jowel
						{
							OFFSET 0.000000 -7.458206 6.864100
							CHANNELS 3 Xrotation Yrotation Zrotation
							End Site
							{
								OFFSET 0.000000 19.849884 0.000000
							}
						}
					}
				}
				JOINT newVegas:LeftShoulder
				{
					OFFSET 15.263000 10.923401 -0.547700
					CHANNELS 3 Xrotation Yrotation Zrotation
					JOINT newVegas:LeftArm
					{
						OFFSET 25.438599 -2.830597 -13.032500
						CHANNELS 3 Xrotation Yrotation Zrotation
						JOINT newVegas:LeftForeArm
						{
							OFFSET 29.960503 0.000000 0.000000
							CHANNELS 3 Xrotation Yrotation Zrotation
							JOINT newVegas:LeftHand
							{
								OFFSET 27.849251 0.000000 0.000000
								CHANNELS 3 Xrotation Yrotation Zrotation
								JOINT newVegas:LeftHandThumb1
								{
									OFFSET 4.487587 -3.305161 6.305391
									CHANNELS 3 Xrotation Yrotation Zrotation
									JOINT newVegas:LeftHandThumb2
									{
										OFFSET 5.480453 -3.164139 3.164143
										CHANNELS 3 Xrotation Yrotation Zrotation
										JOINT newVegas:LeftHandThumb3
										{
											OFFSET 5.159721 -2.978973 2.978967
											CHANNELS 3 Xrotation Yrotation Zrotation
											End Site
											{
												OFFSET 2.494507 5.926697 1.738678
											}
										}
									}
								}
								JOINT newVegas:LeftHandIndex1
								{
									OFFSET 18.578728 -0.527832 5.208049
									CHANNELS 3 Xrotation Yrotation Zrotation
									JOINT newVegas:LeftHandIndex2
									{
										OFFSET 3.192009 0.000000 0.000000
										CHANNELS 3 Xrotation Yrotation Zrotation
										JOINT newVegas:LeftHandIndex3
										{
											OFFSET 3.835129 0.000000 0.000000
											CHANNELS 3 Xrotation Yrotation Zrotation
											End Site
											{
												OFFSET -0.034599 3.816971 0.371180
											}
										}
									}
								}
								JOINT newVegas:LeftHandMiddle1
								{
									OFFSET 18.476105 0.000000 0.000000
									CHANNELS 3 Xrotation Yrotation Zrotation
									JOINT newVegas:LeftHandMiddle2
									{
										OFFSET 3.324875 0.000000 0.000000
										CHANNELS 3 Xrotation Yrotation Zrotation
										JOINT newVegas:LeftHandMiddle3
										{
											OFFSET 4.596550 0.000000 0.000000
											CHANNELS 3 Xrotation Yrotation Zrotation
											End Site
											{
												OFFSET 0.057701 4.578827 0.399218
											}
										}
									}
								}
								JOINT newVegas:LeftHandRing1
								{
									OFFSET 17.732719 0.121887 -4.201567
									CHANNELS 3 Xrotation Yrotation Zrotation
									JOINT newVegas:LeftHandRing2
									{
										OFFSET 2.733170 0.000000 0.000000
										CHANNELS 3 Xrotation Yrotation Zrotation
										JOINT newVegas:LeftHandRing3
										{
											OFFSET 3.178268 0.000000 0.000000
											CHANNELS 3 Xrotation Yrotation Zrotation
											End Site
											{
												OFFSET 0.119102 3.170624 0.185394
											}
										}
									}
								}
								JOINT newVegas:LeftHandPinky1
								{
									OFFSET 15.989624 -0.606689 -7.535461
									CHANNELS 3 Xrotation Yrotation Zrotation
									JOINT newVegas:LeftHandPinky2
									{
										OFFSET 2.538986 0.000000 0.000000
										CHANNELS 3 Xrotation Yrotation Zrotation
										JOINT newVegas:LeftHandPinky3
										{
											OFFSET 2.593102 0.000000 0.000000
											CHANNELS 3 Xrotation Yrotation Zrotation
											End Site
											{
												OFFSET -0.150902 2.584198 0.152708
											}
										}
									}
								}
							}
							JOINT newVegas:Left_Sleeve
							{
								OFFSET 0.267448 -0.649796 0.577675
								CHANNELS 3 Xrotation Yrotation Zrotation
								End Site
								{
									OFFSET 0.000000 15.991241 0.000000
								}
							}
							JOINT newVegas:Left_CapeC
							{
								OFFSET 15.715958 -8.608795 -6.935905
								CHANNELS 3 Xrotation Yrotation Zrotation
								JOINT newVegas:Left_CapeC1
								{
									OFFSET 0.000000 -8.688499 0.000000
									CHANNELS 3 Xrotation Yrotation Zrotation
									End Site
									{
										OFFSET 0.000000 8.688499 0.000000
									}
								}
							}
						}
						JOINT newVegas:Left_CapeB
						{
							OFFSET 26.118385 -8.608795 -7.079235
							CHANNELS 3 Xrotation Yrotation Zrotation
							JOINT newVegas:Left_CapeB1
							{
								OFFSET 0.000000 -8.688499 0.000000
								CHANNELS 3 Xrotation Yrotation Zrotation
								End Site
								{
									OFFSET 0.000000 8.688499 0.000000
								}
							}
						}
						JOINT newVegas:Left_CapeA
						{
							OFFSET 5.115639 -8.608795 -10.395809
							CHANNELS 3 Xrotation Yrotation Zrotation
							JOINT newVegas:Left_CapeA1
							{
								OFFSET 0.000000 -8.688499 0.000000
								CHANNELS 3 Xrotation Yrotation Zrotation
								End Site
								{
									OFFSET 0.000000 8.688499 0.000000
								}
							}
						}
					}
				}
				JOINT newVegas:RightShoulder
				{
					OFFSET -15.263000 10.923401 -0.547700
					CHANNELS 3 Xrotation Yrotation Zrotation
					JOINT newVegas:RightArm
					{
						OFFSET -25.438599 -2.830597 -13.032500
						CHANNELS 3 Xrotation Yrotation Zrotation
						JOINT newVegas:RightForeArm
						{
							OFFSET -29.960503 0.000000 0.000000
							CHANNELS 3 Xrotation Yrotation Zrotation
							JOINT newVegas:RightHand
							{
								OFFSET -27.849251 0.000000 0.000000
								CHANNELS 3 Xrotation Yrotation Zrotation
								JOINT newVegas:RightHandThumb1
								{
									OFFSET -4.487587 -3.305161 6.305391
									CHANNELS 3 Xrotation Yrotation Zrotation
									JOINT newVegas:RightHandThumb2
									{
										OFFSET -5.480453 -3.164139 3.164143
										CHANNELS 3 Xrotation Yrotation Zrotation
										JOINT newVegas:RightHandThumb3
										{
											OFFSET -5.159721 -2.978973 2.978967
											CHANNELS 3 Xrotation Yrotation Zrotation
											End Site
											{
												OFFSET -2.494507 5.926697 1.738678
											}
										}
									}
								}
								JOINT newVegas:RightHandIndex1
								{
									OFFSET -18.578728 -0.527832 5.208049
									CHANNELS 3 Xrotation Yrotation Zrotation
									JOINT newVegas:RightHandIndex2
									{
										OFFSET -3.192009 0.000000 0.000000
										CHANNELS 3 Xrotation Yrotation Zrotation
										JOINT newVegas:RightHandIndex3
										{
											OFFSET -3.835129 0.000000 0.000000
											CHANNELS 3 Xrotation Yrotation Zrotation
											End Site
											{
												OFFSET 0.034599 3.816971 0.371180
											}
										}
									}
								}
								JOINT newVegas:RightHandMiddle1
								{
									OFFSET -18.476105 0.000000 0.000000
									CHANNELS 3 Xrotation Yrotation Zrotation
									JOINT newVegas:RightHandMiddle2
									{
										OFFSET -3.324875 0.000000 0.000000
										CHANNELS 3 Xrotation Yrotation Zrotation
										JOINT newVegas:RightHandMiddle3
										{
											OFFSET -4.596550 0.000000 0.000000
											CHANNELS 3 Xrotation Yrotation Zrotation
											End Site
											{
												OFFSET -0.057701 4.578827 0.399218
											}
										}
									}
								}
								JOINT newVegas:RightHandRing1
								{
									OFFSET -17.732719 0.121887 -4.201567
									CHANNELS 3 Xrotation Yrotation Zrotation
									JOINT newVegas:RightHandRing2
									{
										OFFSET -2.733170 0.000000 0.000000
										CHANNELS 3 Xrotation Yrotation Zrotation
										JOINT newVegas:RightHandRing3
										{
											OFFSET -3.178268 0.000000 0.000000
											CHANNELS 3 Xrotation Yrotation Zrotation
											End Site
											{
												OFFSET -0.119102 3.170624 0.185394
											}
										}
									}
								}
								JOINT newVegas:RightHandPinky1
								{
									OFFSET -15.989624 -0.606689 -7.535461
									CHANNELS 3 Xrotation Yrotation Zrotation
									JOINT newVegas:RightHandPinky2
									{
										OFFSET -2.538986 0.000000 0.000000
										CHANNELS 3 Xrotation Yrotation Zrotation
										JOINT newVegas:RightHandPinky3
										{
											OFFSET -2.593102 0.000000 0.000000
											CHANNELS 3 Xrotation Yrotation Zrotation
											End Site
											{
												OFFSET 0.150902 2.584198 0.152708
											}
										}
									}
								}
							}
							JOINT newVegas:Right_CapeC
							{
								OFFSET -15.715958 -8.608795 -6.935905
								CHANNELS 3 Xrotation Yrotation Zrotation
								JOINT newVegas:Right_CapeC1
								{
									OFFSET 0.000000 -8.688499 0.000000
									CHANNELS 3 Xrotation Yrotation Zrotation
									End Site
									{
										OFFSET 0.000000 8.688499 0.000000
									}
								}
							}
							JOINT newVegas:Right_Sleeve
							{
								OFFSET -0.267448 -0.649994 0.577675
								CHANNELS 3 Xrotation Yrotation Zrotation
								End Site
								{
									OFFSET 0.000000 15.991302 0.000000
								}
							}
						}
						JOINT newVegas:Right_CapeA
						{
							OFFSET -5.115540 -8.608795 -10.395824
							CHANNELS 3 Xrotation Yrotation Zrotation
							JOINT newVegas:Right_CapeA1
							{
								OFFSET 0.000000 -8.688499 0.000000
								CHANNELS 3 Xrotation Yrotation Zrotation
								End Site
								{
									OFFSET 0.000000 8.688499 0.000000
								}
							}
						}
						JOINT newVegas:Right_CapeB
						{
							OFFSET -26.118187 -8.608795 -7.079266
							CHANNELS 3 Xrotation Yrotation Zrotation
							JOINT newVegas:Right_CapeB1
							{
								OFFSET 0.000000 -8.688499 0.000000
								CHANNELS 3 Xrotation Yrotation Zrotation
								End Site
								{
									OFFSET 0.000000 8.688499 0.000000
								}
							}
						}
					}
				}
				JOINT newVegas:Left_Collar
				{
					OFFSET 18.625099 8.655502 8.828100
					CHANNELS 3 Xrotation Yrotation Zrotation
					JOINT newVegas:Left_Collar1
					{
						OFFSET 14.783401 10.540405 -1.259500
						CHANNELS 3 Xrotation Yrotation Zrotation
						End Site
						{
							OFFSET 0.000000 18.199875 0.000000
						}
					}
				}
				JOINT newVegas:Collar_Back
				{
					OFFSET 0.000000 15.630707 -20.132601
					CHANNELS 3 Xrotation Yrotation Zrotation
					End Site
					{
						OFFSET 0.000000 22.523010 0.000000
					}
				}
				JOINT newVegas:Left_Peck
				{
					OFFSET 17.239599 -5.132599 25.482599
					CHANNELS 3 Xrotation Yrotation Zrotation
					End Site
					{
						OFFSET 0.000000 22.523010 0.000000
					}
				}
				JOINT newVegas:Right_Peck
				{
					OFFSET -17.239599 -5.132202 25.482599
					CHANNELS 3 Xrotation Yrotation Zrotation
					End Site
					{
						OFFSET 0.000000 22.523010 0.000000
					}
				}
				JOINT newVegas:Right_Collar
				{
					OFFSET -18.625099 8.655792 8.828100
					CHANNELS 3 Xrotation Yrotation Zrotation
					JOINT newVegas:Right_Collar1
					{
						OFFSET -14.783401 10.539993 -1.259500
						CHANNELS 3 Xrotation Yrotation Zrotation
						End Site
						{
							OFFSET 0.000000 18.199631 0.000000
						}
					}
				}
			}
		}
		JOINT newVegas:Belly
		{
			OFFSET 0.000000 -6.540398 9.014299
			CHANNELS 3 Xrotation Yrotation Zrotation
			End Site
			{
				OFFSET 0.000000 11.566666 0.000000
			}
		}
	}
	JOINT newVegas:ElvisFacialAnim_Joint
	{
		OFFSET 1.000000 -95.330101 -8.825800
		CHANNELS 3 Xrotation Yrotation Zrotation
		End Site
		{
			OFFSET 0.000000 35.315800 0.000000
		}
	}
}
MOTION
Frames: 4
Frame Time: 0.033333
-2.345217 107.523003 5.292521 -9.529849 -25.299545 -5.709333 0.000000 -0.000001 -0.000000 -113.504821 9.398832 21.200987 148.464981 -3.520204 -2.499430 -12.899336 15.000593 6.592763 -0.000001 -0.000000 -0.000000 -0.000001 0.000000 0.000003 -159.955503 -8.888197 -19.695539 151.890662 -2.333582 2.353598 30.179307 -2.652812 -19.233347 0.000001 -0.000000 0.000000 -0.000000 0.000004 -0.000001 9.210907 -0.605035 -1.840158 18.437544 1.276471 -2.714831 18.437537 1.276475 -2.714835 5.822325 -0.816447 1.428139 5.822304 -0.816448 1.428143 0.000004 0.000001 -0.000001 5.822433 -0.816432 1.428135 5.822230 -0.816465 1.428136 -0.000000 -0.000002 0.000003 0.000004 0.000001 0.000001 0.566785 -7.319592 -0.522541 -33.190044 -27.138418 -71.012903 0.033654 -64.054115 0.032848 50.429927 3.041561 -10.455212 -6.896655 -1.280046 10.377003 2.321137 6.714511 2.170919 -0.000003 -0.000006 -0.000005 -0.023967 -0.779278 -8.680750 0.067995 0.764261 -16.879064 -0.000002 0.000002 -0.000002 -0.137393 0.619958 -12.274837 -0.085886 -0.354751 -10.511355 0.000001 0.000001 0.000002 -0.092248 7.427034 -16.709771 -0.123183 -1.634672 -13.116377 -0.000004 -0.000002 0.000001 -0.102777 13.410967 -11.521758 -0.510024 -5.458653 -22.584476 0.000002 -0.000003 -0.000001 0.000001 -0.000002 0.000000 0.000001 -0.000002 0.000000 0.000001 -0.000002 0.000001 0.000001 -0.000001 0.000000 0.000001 -0.000001 0.000000 0.000001 -0.000001 0.000000 -0.000000 -0.000001 0.000000 4.899476 14.419313 -8.901930 -31.425721 10.727434 70.225772 0.093729 77.007637 -0.079977 39.778328 -4.318585 23.043977 10.702453 -0.252749 15.859935 2.321130 -6.714514 -2.170922 0.000001 0.000000 0.000001 -1.129052 0.199731 19.493759 0.500238 -1.790474 37.291484 -0.000001 0.000000 -0.000000 0.453162 -3.018812 32.954891 -0.511032 1.324030 30.920140 0.000001 -0.000004 0.000002 0.106545 -4.786429 39.735862 -1.019193 3.890973 33.427397 0.000000 -0.000003 0.000000 0.572584 -8.063930 42.909099 -2.629558 9.582591 42.685086 0.000000 0.000002 -0.000002 -0.000001 0.000000 0.000000 -0.000001 -0.000002 0.000001 -0.000001 -0.000000 0.000000 -0.000000 0.000000 -0.000001 0.000000 0.000000 -0.000000 -0.000000 0.000000 -0.000001 0.000000 -0.000000 -0.000000 0.000001 -0.000000 0.000000 0.000001 -0.000000 0.000000 0.000001 -0.000000 0.000000 0.000001 -0.000000 0.000000 0.000001 -0.000000 0.000000 0.000001 -0.000000 0.000000 0.000001 -0.000000 0.000000 0.000000 -0.000000 -0.000000 0.000000 -0.000001 -0.000000 
-2.361826 107.497986 5.455073 -9.693574 -25.372302 -5.995155 -0.000000 0.000000 0.000000 -113.157732 8.216486 20.813422 148.798157 -4.247597 -2.581275 -12.753377 14.881763 5.565729 0.000001 0.000000 -0.000001 -0.000000 0.000000 0.000002 -159.930396 -7.785356 -18.892266 152.062059 -2.043186 2.393851 30.813978 -1.641761 -18.012925 0.000001 -0.000000 -0.000000 0.000002 -0.000000 0.000001 9.156450 -0.636589 -1.875609 18.328640 1.233752 -2.738559 18.328647 1.233749 -2.738558 5.737049 -0.804064 1.395418 5.737026 -0.804048 1.395415 0.000002 0.000001 0.000001 5.737031 -0.804057 1.395413 5.737033 -0.804028 1.395408 0.000002 -0.000002 0.000001 0.000002 0.000001 -0.000000 0.544544 -7.357241 -0.673788 -33.373346 -27.242479 -71.337487 0.033940 -64.064722 0.033578 51.158059 3.134657 -10.579750 -6.896632 -1.280036 10.377011 2.321128 6.714503 2.170914 0.000001 -0.000007 -0.000002 -0.023969 -0.779289 -8.680762 0.067988 0.764278 -16.879057 -0.000001 0.000003 -0.000001 -0.137389 0.619954 -12.274821 -0.085882 -0.354748 -10.511374 -0.000001 0.000002 0.000001 -0.092243 7.427050 -16.709771 -0.123178 -1.634676 -13.116379 -0.000001 -0.000001 0.000002 -0.102781 13.410961 -11.521763 -0.510041 -5.458634 -22.584490 0.000001 -0.000003 -0.000002 -0.000001 -0.000001 -0.000000 -0.000001 -0.000001 -0.000000 -0.000001 -0.000001 0.000000 -0.000002 0.000000 0.000000 -0.000002 0.000000 0.000000 -0.000002 0.000000 0.000000 -0.000003 -0.000000 0.000000 4.819619 14.551032 -8.468970 -31.557113 11.032677 69.880779 0.094112 76.493112 -0.080870 39.556573 -4.078385 23.119775 10.702442 -0.252778 15.859940 2.321131 -6.714513 -2.170931 0.000000 -0.000002 -0.000001 -1.129047 0.199725 19.493746 0.500226 -1.790465 37.291491 -0.000002 -0.000002 -0.000000 0.453172 -3.018795 32.954905 -0.511030 1.324020 30.920113 -0.000001 0.000003 -0.000000 0.106553 -4.786430 39.735865 -1.019197 3.890982 33.427390 0.000001 0.000001 -0.000001 0.572591 -8.063934 42.909075 -2.629578 9.582583 42.685103 0.000002 -0.000004 -0.000002 0.000000 -0.000001 0.000001 0.000000 -0.000001 0.000001 0.000000 -0.000001 0.000001 0.000001 0.000000 0.000001 0.000001 0.000000 0.000001 0.000001 0.000000 0.000001 0.000001 -0.000000 0.000001 0.000002 0.000001 0.000000 0.000002 0.000001 0.000000 0.000002 0.000001 0.000000 0.000002 0.000001 0.000000 0.000002 0.000001 0.000000 0.000002 0.000001 0.000000 0.000002 0.000001 0.000000 -0.000000 0.000002 0.000000 -0.000000 0.000000 0.000000 
-2.330824 107.431007 5.804085 -9.955009 -25.548997 -6.520822 -0.000001 0.000001 -0.000000 -112.667980 6.276100 19.923728 149.370855 -5.487169 -2.722417 -12.444641 14.864327 3.732491 0.000000 -0.000000 -0.000000 -0.000000 0.000002 0.000000 -159.936092 -6.064231 -17.478961 152.378105 -1.597214 2.456246 31.767787 0.120898 -16.075972 0.000000 -0.000001 -0.000000 0.000001 0.000002 0.000001 9.039680 -0.689545 -1.929068 18.095140 1.159432 -2.771382 18.095126 1.159441 -2.771384 5.530551 -0.765003 1.318174 5.530551 -0.764999 1.318175 -0.000000 0.000000 0.000001 5.530588 -0.764990 1.318177 5.530473 -0.765033 1.318180 0.000003 0.000002 -0.000002 -0.000000 0.000000 0.000001 0.499615 -7.535755 -1.095882 -33.750915 -27.607298 -71.886976 0.035278 -64.516355 0.035559 51.807395 3.432547 -10.550508 -6.896649 -1.280034 10.377019 2.321137 6.714496 2.170915 0.000002 -0.000007 -0.000009 -0.023991 -0.779297 -8.680753 0.068005 0.764271 -16.879064 -0.000002 0.000001 -0.000001 -0.137404 0.619969 -12.274829 -0.085867 -0.354749 -10.511372 -0.000004 -0.000002 0.000003 -0.092247 7.427046 -16.709781 -0.123181 -1.634657 -13.116375 0.000001 0.000001 -0.000001 -0.102780 13.410965 -11.521765 -0.510034 -5.458644 -22.584461 -0.000001 -0.000002 -0.000002 0.000000 0.000000 -0.000000 0.000000 0.000000 -0.000000 0.000000 0.000000 0.000000 -0.000002 -0.000001 0.000001 -0.000001 -0.000001 0.000001 -0.000002 -0.000001 0.000001 -0.000003 -0.000001 0.000001 4.670512 14.823619 -7.637998 -31.894548 11.522403 69.093709 0.096314 75.574575 -0.084181 39.279783 -3.640834 23.550342 10.702455 -0.252765 15.859923 2.321132 -6.714515 -2.170924 0.000001 0.000001 -0.000000 -1.129062 0.199730 19.493753 0.500229 -1.790462 37.291508 -0.000001 -0.000001 0.000000 0.453170 -3.018812 32.954870 -0.511015 1.324041 30.920120 -0.000001 0.000002 -0.000000 0.106554 -4.786428 39.735869 -1.019191 3.890983 33.427407 0.000001 -0.000008 -0.000001 0.572578 -8.063934 42.909099 -2.629550 9.582584 42.685100 0.000000 0.000003 0.000003 -0.000001 -0.000001 0.000000 0.000001 0.000001 0.000001 -0.000001 -0.000001 0.000000 0.000001 -0.000001 -0.000002 0.000001 -0.000001 -0.000002 0.000001 -0.000001 -0.000002 0.000001 -0.000001 -0.000002 -0.000000 -0.000002 0.000000 -0.000000 -0.000002 0.000000 -0.000000 -0.000002 0.000000 -0.000000 -0.000002 0.000000 -0.000000 -0.000002 0.000000 -0.000000 -0.000002 0.000000 -0.000000 -0.000002 0.000000 0.000000 0.000000 0.000001 -0.000001 0.000001 -0.000000 
-2.165411 107.333755 6.196004 -10.018156 -25.776359 -6.962131 -0.000000 -0.000000 -0.000000 -112.740742 5.347078 18.828557 149.788740 -6.107060 -2.788622 -12.043343 15.273464 2.443484 -0.000001 -0.000000 -0.000000 -0.000000 0.000003 0.000001 -160.008957 -5.233200 -16.465057 152.605428 -1.289424 2.499020 32.202914 1.218819 -14.966854 0.000001 -0.000001 0.000000 0.000001 0.000001 -0.000002 8.904472 -0.721666 -1.958332 17.824791 1.114624 -2.794302 17.824779 1.114625 -2.794301 5.249874 -0.692958 1.247774 5.249887 -0.692955 1.247769 -0.000001 0.000000 0.000001 5.249873 -0.692945 1.247772 5.249930 -0.692969 1.247782 -0.000000 0.000000 0.000001 -0.000001 0.000000 0.000001 0.452642 -7.831115 -1.652284 -34.480243 -28.073329 -72.574045 0.037516 -65.301676 0.038172 51.349349 3.732005 -9.938965 -6.896641 -1.280065 10.377017 2.321128 6.714512 2.170919 0.000003 -0.000003 -0.000007 -0.023990 -0.779304 -8.680755 0.067987 0.764281 -16.879073 -0.000000 -0.000003 -0.000001 -0.137410 0.619946 -12.274820 -0.085872 -0.354734 -10.511364 0.000004 -0.000002 0.000001 -0.092255 7.427036 -16.709774 -0.123177 -1.634680 -13.116365 -0.000001 0.000003 -0.000001 -0.102782 13.410952 -11.521756 -0.510039 -5.458650 -22.584470 -0.000002 -0.000007 0.000001 0.000001 -0.000001 0.000001 0.000001 -0.000001 0.000001 0.000001 -0.000001 0.000001 -0.000001 0.000000 0.000000 -0.000001 -0.000001 -0.000000 -0.000001 0.000000 0.000000 -0.000003 0.000001 0.000000 4.548027 15.112553 -6.893064 -32.436606 11.735257 68.293573 0.100659 74.780661 -0.089580 39.356165 -3.152054 24.368653 10.702448 -0.252754 15.859930 2.321129 -6.714513 -2.170920 0.000000 0.000001 0.000001 -1.129058 0.199702 19.493751 0.500238 -1.790440 37.291504 -0.000001 -0.000000 -0.000001 0.453156 -3.018810 32.954877 -0.510998 1.324037 30.920123 -0.000000 -0.000001 0.000000 0.106546 -4.786444 39.735872 -1.019188 3.890991 33.427397 -0.000002 -0.000001 0.000001 0.572587 -8.063935 42.909099 -2.629564 9.582590 42.685103 0.000000 0.000003 0.000001 -0.000000 -0.000001 0.000000 -0.000000 0.000001 -0.000001 -0.000000 -0.000001 0.000000 0.000000 -0.000001 0.000001 0.000001 -0.000001 0.000001 0.000000 -0.000001 0.000001 0.000001 -0.000001 0.000001 -0.000000 0.000001 0.000001 -0.000000 0.000001 0.000001 -0.000000 0.000001 0.000001 -0.000000 0.000001 0.000001 -0.000000 0.000001 0.000001 -0.000000 0.000001 0.000001 -0.000000 0.000001 0.000001 -0.000000 0.000000 -0.000000 -0.000000 -0.000000 -0.000000 
